<svg xmlns="http://www.w3.org/2000/svg" viewBox="0 0 650 400"><clipPath id="a"><path fill="none" d="M0 0h650v400H0z"/></clipPath><g clip-path="url(#a)"><path fill="#fff" d="M0 0h650v400H0z"/><path d="M0 400h650M0 350h650M0 300h650M0 250h650M0 200h650M0 150h650M0 100h650M0 50h650M0 0h650M25 0v400M75 0v400M125 0v400M175 0v400M225 0v400M275 0v400M325 0v400M374 0v400M425 0v400M475 0v400M525 0v400M575 0v400M625 0v400" fill="none" stroke="#d0d0d0"/><path d="M325 0v400M318.5 400h13m-13-50h13m-13-50h13m-13-50h13m-13-50h13m-13-50h13m-13-50h13m-13-50h13m-13-50h13M0 200h650M-25 193.5v13m50-13v13m50-13v13m50-13v13m50-13v13m50-13v13m50-13v13m50-13v13m50-13v13m50-13v13m50-13v13m50-13v13m50-13v13m50-13v13" fill="none" stroke="#000"/><text x="333.125" y="352.5" style="font:10px Droid Sans,Trebuchet MS,Arial,Helvetica,sans-serif">-1.5</text><text x="333.125" y="302.5" style="font:10px Droid Sans,Trebuchet MS,Arial,Helvetica,sans-serif">-1</text><text x="333.125" y="252.5" style="font:10px Droid Sans,Trebuchet MS,Arial,Helvetica,sans-serif">-0.5</text><text x="333.125" y="202.5" style="font:10px Droid Sans,Trebuchet MS,Arial,Helvetica,sans-serif">0</text><text x="333.125" y="152.5" style="font:10px Droid Sans,Trebuchet MS,Arial,Helvetica,sans-serif">0.5</text><text x="333.125" y="102.5" style="font:10px Droid Sans,Trebuchet MS,Arial,Helvetica,sans-serif">1</text><text x="333.125" y="52.5" style="font:10px Droid Sans,Trebuchet MS,Arial,Helvetica,sans-serif">1.5</text><text x="25" y="216.125" text-anchor="middle" style="font:10px Droid Sans,Trebuchet MS,Arial,Helvetica,sans-serif">-3</text><text x="75" y="216.125" text-anchor="middle" style="font:10px Droid Sans,Trebuchet MS,Arial,Helvetica,sans-serif">-2.5</text><text x="125" y="216.125" text-anchor="middle" style="font:10px Droid Sans,Trebuchet MS,Arial,Helvetica,sans-serif">-2</text><text x="175" y="216.125" text-anchor="middle" style="font:10px Droid Sans,Trebuchet MS,Arial,Helvetica,sans-serif">-1.5</text><text x="225" y="216.125" text-anchor="middle" style="font:10px Droid Sans,Trebuchet MS,Arial,Helvetica,sans-serif">-1</text><text x="275" y="216.125" text-anchor="middle" style="font:10px Droid Sans,Trebuchet MS,Arial,Helvetica,sans-serif">-0.5</text><text x="325" y="216.125" text-anchor="middle" style="font:10px Droid Sans,Trebuchet MS,Arial,Helvetica,sans-serif">0</text><text x="375" y="216.125" text-anchor="middle" style="font:10px Droid Sans,Trebuchet MS,Arial,Helvetica,sans-serif">0.5</text><text x="425" y="216.125" text-anchor="middle" style="font:10px Droid Sans,Trebuchet MS,Arial,Helvetica,sans-serif">1</text><text x="475" y="216.125" text-anchor="middle" style="font:10px Droid Sans,Trebuchet MS,Arial,Helvetica,sans-serif">1.5</text><text x="525" y="216.125" text-anchor="middle" style="font:10px Droid Sans,Trebuchet MS,Arial,Helvetica,sans-serif">2</text><text x="575" y="216.125" text-anchor="middle" style="font:10px Droid Sans,Trebuchet MS,Arial,Helvetica,sans-serif">2.5</text><text x="625" y="216.125" text-anchor="middle" style="font:10px Droid Sans,Trebuchet MS,Arial,Helvetica,sans-serif">3</text><path d="M-10 200l9.75-50.5 1 2 .5 1 .5 1 .5 1 .5 1 .5 1 .5 1 .5 1 .5 1 .5 1 .5 1 .5 1 .5 1 .5 1 .5 1 .5 1 .5 1 .5 1 .5 1 .5 1 .5 1 .5 1 .5 1 .5 1 .5 1 .5 1 .5 1 .5 1 .5 1 .5 1 .5 1 .5 1 .5 1 .5 1 .5 1 .5 1 .5 1 .5 1 .5 1 .5 1 .5 1 .5 1 .5 1 .5 1 .5 1 .5 1 .5 1 .5 1 .5 1h.5l2-4 .5-1 .5-1 .5-1 .5-1 .5-1 .5-1 .5-1 .5-1 .5-1 .5-1 .5-1 .5-1 .5-1 .5-1 .5-1 .5-1 .5-1 .5-1 .5-1 .5-1 .5-1 .5-1 .5-1 .5-1 .5-1 .5-1 .5-1 .5-1 .5-1 .5-1 .5-1 .5-1 .5-1 .5-1 .5-1 .5-1 .5-1 .5-1 .5-1 .5-1 .5-1 .5-1 .5-1 .5-1 .5-1 .5-1 .5-1 .5-1 .5-1 .5-1 .5-1 .5-1 .5-1 .5-1 .5-1 .5-1 .5-1 .5-1 .5-1 .5-1 .5-1 .5-1 .5-1 .5-1 .5-1 .5-1 .5-1 .5-1 .5-1 .5-1 .5-1 .5-1 .5-1 .5-1 .5-1 .5-1 .5-1 .5-1 .5-1 .5-1 .5-1 .5-1 .5-1 .5-1 .5-1 .5-1 .5-1 .5-1 .5-1 .5-1 .5-1 .5-1 .5-1 .5-1 .5-1h.5l2 4 .5 1 .5 1 .5 1 .5 1 .5 1 .5 1 .5 1 .5 1 .5 1 .5 1 .5 1 .5 1 .5 1 .5 1 .5 1 .5 1 .5 1 .5 1 .5 1 .5 1 .5 1 .5 1 .5 1 .5 1 .5 1 .5 1 .5 1 .5 1 .5 1 .5 1 .5 1 .5 1 .5 1 .5 1 .5 1 .5 1 .5 1 .5 1 .5 1 .5 1 .5 1 .5 1 .5 1 .5 1 .5 1 .5 1 .5 1 .5 1 .5 1 .5 1 .5 1 .5 1 .5 1 .5 1 .5 1 .5 1 .5 1 .5 1 .5 1 .5 1 .5 1 .5 1 .5 1 .5 1 .5 1 .5 1 .5 1 .5 1 .5 1 .5 1 .5 1 .5 1 .5 1 .5 1 .5 1 .5 1 .5 1 .5 1 .5 1 .5 1 .5 1 .5 1 .5 1 .5 1 .5 1 .5 1 .5 1 .5 1 .5 1 .5 1 .5 1 .5 1 .5 1 .5 1 .5 1h.5l2-4 .5-1 .5-1 .5-1 .5-1 .5-1 .5-1 .5-1 .5-1 .5-1 .5-1 .5-1 .5-1 .5-1 .5-1 .5-1 .5-1 .5-1 .5-1 .5-1 .5-1 .5-1 .5-1 .5-1 .5-1 .5-1 .5-1 .5-1 .5-1 .5-1 .5-1 .5-1 .5-1 .5-1 .5-1 .5-1 .5-1 .5-1 .5-1 .5-1 .5-1 .5-1 .5-1 .5-1 .5-1 .5-1 .5-1 .5-1 .5-1 .5-1 .5-1 .5-1 .5-1 .5-1 .5-1 .5-1 .5-1 .5-1 .5-1 .5-1 .5-1 .5-1 .5-1 .5-1 .5-1 .5-1 .5-1 .5-1 .5-1 .5-1 .5-1 .5-1 .5-1 .5-1 .5-1 .5-1 .5-1 .5-1 .5-1 .5-1 .5-1 .5-1 .5-1 .5-1 .5-1 .5-1 .5-1 .5-1 .5-1 .5-1 .5-1 .5-1 .5-1 .5-1 .5-1 .5-1h.5l2 4 .5 1 .5 1 .5 1 .5 1 .5 1 .5 1 .5 1 .5 1 .5 1 .5 1 .5 1 .5 1 .5 1 .5 1 .5 1 .5 1 .5 1 .5 1 .5 1 .5 1 .5 1 .5 1 .5 1 .5 1 .5 1 .5 1 .5 1 .5 1 .5 1 .5 1 .5 1 .5 1 .5 1 .5 1 .5 1 .5 1 .5 1 .5 1 .5 1 .5 1 .5 1 .5 1 .5 1 .5 1 .5 1 .5 1 .5 1 .5 1 .5 1 .5 1 .5 1 .5 1 .5 1 .5 1 .5 1 .5 1 .5 1 .5 1 .5 1 .5 1 .5 1 .5 1 .5 1 .5 1 .5 1 .5 1 .5 1 .5 1 .5 1 .5 1 .5 1 .5 1 .5 1 .5 1 .5 1 .5 1 .5 1 .5 1 .5 1 .5 1 .5 1 .5 1 .5 1 .5 1 .5 1 .5 1 .5 1 .5 1 .5 1 .5 1 .5 1 .5 1 .5 1 .5 1 .5 1h.5l2-4 .5-1 .5-1 .5-1 .5-1 .5-1 .5-1 .5-1 .5-1 .5-1 .5-1 .5-1 .5-1 .5-1 .5-1 .5-1 .5-1 .5-1 .5-1 .5-1 .5-1 .5-1 .5-1 .5-1 .5-1 .5-1 .5-1 .5-1 .5-1 .5-1 .5-1 .5-1 .5-1 .5-1 .5-1 .5-1 .5-1 .5-1 .5-1 .5-1 .5-1 .5-1 .5-1 .5-1 .5-1 .5-1 .5-1 .5-1 .5-1 .5-1 .5-1 .5-1 .5-1 .5-1 .5-1 .5-1 .5-1 .5-1 .5-1 .5-1 .5-1 .5-1 .5-1 .5-1 .5-1 .5-1 .5-1 .5-1 .5-1 .5-1 .5-1 .5-1 .5-1 .5-1 .5-1 .5-1 .5-1 .5-1 .5-1 .5-1 .5-1 .5-1 .5-1 .5-1 .5-1 .5-1 .5-1 .5-1 .5-1 .5-1 .5-1 .5-1 .5-1 .5-1 .5-1 .5-1h.5l2 4 .5 1 .5 1 .5 1 .5 1 .5 1 .5 1 .5 1 .5 1 .5 1 .5 1 .5 1 .5 1 .5 1 .5 1 .5 1 .5 1 .5 1 .5 1 .5 1 .5 1 .5 1 .5 1 .5 1 .5 1 .5 1 .5 1 .5 1 .5 1 .5 1 .5 1 .5 1 .5 1 .5 1 .5 1 .5 1 .5 1 .5 1 .5 1 .5 1 .5 1 .5 1 .5 1 .5 1 .5 1 .5 1 .5 1 .5 1 .5 1 .5 1 .5 1 .5 1 .5 1 .5 1 .5 1 .5 1 .5 1 .5 1 .5 1 .5 1 .5 1 .5 1 .5 1 .5 1 .5 1 .5 1 .5 1 .5 1 .5 1 .5 1 .5 1 .5 1 .5 1 .5 1 .5 1 .5 1 .5 1 .5 1 .5 1 .5 1 .5 1 .5 1 .5 1 .5 1 .5 1 .5 1 .5 1 .5 1 .5 1 .5 1 .5 1 .5 1 .5 1 .5 1 .5 1 .5 1h.5l2-4 .5-1 .5-1 .5-1 .5-1 .5-1 .5-1 .5-1 .5-1 .5-1 .5-1 .5-1 .5-1 .5-1 .5-1 .5-1 .5-1 .5-1 .5-1 .5-1 .5-1 .5-1 .5-1 .5-1 .5-1 .5-1 .5-1 .5-1 .5-1 .5-1 .5-1 .5-1 .5-1 .5-1 .5-1 .5-1 .5-1 .5-1 .5-1 .5-1 .5-1 .5-1 .5-1 .5-1 .5-1 .5-1 .5-1 .5-1 .5-1 .5-1 .5-1 .5-1 .5-1 .5-1 .5-1 .5-1 .5-1 .5-1 .5-1 .5-1 .5-1 .5-1 .5-1 .5-1 .5-1 .5-1 .5-1 .5-1 .5-1 .5-1 .5-1 .5-1 .5-1 .5-1 .5-1 .5-1 .5-1 .5-1 .5-1 .5-1 .5-1 .5-1 .5-1 .5-1 .5-1 .5-1 .5-1 .5-1 .5-1 .5-1 .5-1 .5-1 .5-1 .5-1 .5-1 .5-1h.5l2 4 .5 1 .5 1 .5 1 .5 1 .5 1 .5 1 .5 1 .5 1 .5 1 .5 1 .5 1 .5 1 .5 1 .5 1 .5 1 .5 1 .5 1 .5 1 .5 1 .5 1 .5 1 .5 1 .5 1 .5 1 .5 1 .5 1 .5 1 .5 1 .5 1 .5 1 .5 1 .5 1 .5 1 .5 1 .5 1 .5 1 .5 1 .5 1 .5 1 .5 1 .5 1 .5 1 .5 1 .5 1 .5 1 .5 1 .5 1 .5 1 .5 1 .5 1 .5 1 .5 1 .5 1 .5 1 .5 1 .5 1 .5 1 .5 1 .5 1 .5 1 .5 1 .5 1 .5 1 .5 1 .5 1 .5 1 .5 1 .5 1 .5 1 .5 1 .5 1 .5 1 .5 1 .5 1 .5 1 .5 1 .5 1 .5 1 .5 1 .5 1 .5 1 .5 1 .5 1 .5 1 .5 1 .5 1 .5 1 .5 1 .5 1 .5 1 .5 1 .5 1 .5 1 .5 1 .5 1h.5l2-4 .5-1 .5-1 .5-1 .5-1 .5-1 .5-1 .5-1 .5-1 .5-1 .5-1 .5-1 .5-1 .5-1 .5-1 .5-1 .5-1 .5-1 .5-1 .5-1 .5-1 .5-1 .5-1 .5-1 .5-1 .5-1 .5-1 .5-1 .5-1 .5-1 .5-1 .5-1 .5-1 .5-1 .5-1 .5-1 .5-1 .5-1 .5-1 .5-1 .5-1 .5-1 .5-1 .5-1 .5-1 .5-1 .5-1 .5-1 .5-1 .5-1 .5-1 .5-1 .5-1 .5-1 .5-1 .5-1 .5-1 .5-1 .5-1 .5-1 .5-1 .5-1 .5-1 .5-1 .5-1 .5-1 .5-1 .5-1 .5-1 .5-1 .5-1 .5-1 .5-1 .5-1 .5-1 .5-1 .5-1 .5-1 .5-1 .5-1 .5-1 .5-1 .5-1 .5-1 .5-1 .5-1 .5-1 .5-1 .5-1 .5-1 .5-1 .5-1 .5-1 .5-1 .5-1 .5-1h.5l2 4 .5 1 .5 1 .5 1 .5 1 .5 1 .5 1 .5 1 .5 1 .5 1 .5 1 .5 1 .5 1 .5 1 .5 1 .5 1 .5 1 .5 1 .5 1 .5 1 .5 1 .5 1 .5 1 .5 1 .5 1 .5 1 .5 1 .5 1 .5 1 .5 1 .5 1 .5 1 .5 1 .5 1 .5 1 .5 1 .5 1 .5 1 .5 1 .5 1 .5 1 .5 1 .5 1 .5 1 .5 1 .5 1 .5 1 .5 1 .5 1 .5 1 .5 1 .5 1 .5 1 .5 1 .5 1 .5 1 .5 1 .5 1 .5 1 .5 1 .5 1 .5 1 .5 1 .5 1 .5 1 .5 1 .5 1 .5 1 .5 1 .5 1 .5 1 .5 1 .5 1 .5 1 .5 1 .5 1 .5 1 .5 1 .5 1 .5 1 .5 1 .5 1 .5 1 .5 1 .5 1 .5 1 .5 1 .5 1 .5 1 .5 1 .5 1 .5 1 .5 1 .5 1 .5 1 .5 1h.5l2-4 .5-1 .5-1 .5-1 .5-1 .5-1 .5-1 .5-1 .5-1 .5-1 .5-1 .5-1 .5-1 .5-1 .5-1 .5-1 .5-1 .5-1 .5-1 .5-1 .5-1 .5-1 .5-1 .5-1 .5-1 .5-1 .5-1 .5-1 .5-1 .5-1 .5-1 .5-1 .5-1 .5-1 .5-1 .5-1 .5-1 .5-1 .5-1 .5-1 .5-1 .5-1 .5-1 .5-1 .5-1 .5-1 .5-1 .5-1 .5-1 .5-1 .5-1 .5-1 .5-1 .5-1 .5-1 .5-1 .5-1 .5-1 .5-1 .5-1 .5-1 .5-1 .5-1 .5-1 .5-1 .5-1 .5-1 .5-1 .5-1 .5-1 .5-1 .5-1 .5-1 .5-1 .5-1 .5-1 .5-1 .5-1 .5-1 .5-1 .5-1 .5-1 .5-1 .5-1 .5-1 .5-1 .5-1 .5-1 .5-1 .5-1 .5-1 .5-1 .5-1 .5-1 .5-1 .5-1h.5l2 4 .5 1 .5 1 .5 1 .5 1 .5 1 .5 1 .5 1 .5 1 .5 1 .5 1 .5 1 .5 1 .5 1 .5 1 .5 1 .5 1 .5 1 .5 1 .5 1 .5 1 .5 1 .5 1 .5 1 .5 1 .5 1 .5 1 .5 1 .5 1 .5 1 .5 1 .5 1 .5 1 .5 1 .5 1 .5 1 .5 1 .5 1 .5 1 .5 1 .5 1 .5 1 .5 1 .5 1 .5 1 .5 1 .5 1 .5 1 .5 1 .5 1 .5 1 .5 1 .5 1 .5 1 .5 1 .5 1 .5 1 .5 1 .5 1 .5 1 .5 1 .5 1 .5 1 .5 1 .5 1 .5 1 .5 1 .5 1 .5 1 .5 1 .5 1 .5 1 .5 1 .5 1 .5 1 .5 1 .5 1 .5 1 .5 1 .5 1 .5 1 .5 1 .5 1 .5 1 .5 1 .5 1 .5 1 .5 1 .5 1 .5 1 .5 1 .5 1 .5 1 .5 1 .5 1 .5 1h.5l2-4 .5-1 .5-1 .5-1 .5-1 .5-1 .5-1 .5-1 .5-1 .5-1 .5-1 .5-1 .5-1 .5-1 .5-1 .5-1 .5-1 .5-1 .5-1 .5-1 .5-1 .5-1 .5-1 .5-1 .5-1 .5-1 .5-1 .5-1 .5-1 .5-1 .5-1 .5-1 .5-1 .5-1 .5-1 .5-1 .5-1 .5-1 .5-1 .5-1 .5-1 .5-1 .5-1 .5-1 .5-1 .5-1" fill="none" stroke="#000"/></g></svg>