<svg xmlns="http://www.w3.org/2000/svg" viewBox="0 0 650 400"><clipPath id="a"><path fill="none" d="M0 0h650v400H0z"/></clipPath><g clip-path="url(#a)"><path fill="#fff" d="M0 0h650v400H0z"/><path d="M0 400h650M0 350h650M0 300h650M0 250h650M0 200h650M0 150h650M0 100h650M0 50h650M0 0h650M25 0v400M75 0v400M125 0v400M175 0v400M225 0v400M275 0v400M325 0v400M374 0v400M425 0v400M475 0v400M525 0v400M575 0v400M625 0v400" fill="none" stroke="#d0d0d0"/><path d="M325 0v400M318.5 400h13m-13-50h13m-13-50h13m-13-50h13m-13-50h13m-13-50h13m-13-50h13m-13-50h13m-13-50h13M0 200h650M-25 193.5v13m50-13v13m50-13v13m50-13v13m50-13v13m50-13v13m50-13v13m50-13v13m50-13v13m50-13v13m50-13v13m50-13v13m50-13v13m50-13v13" fill="none" stroke="#000"/><text x="333.125" y="352.5" style="font:10px Droid Sans,Trebuchet MS,Arial,Helvetica,sans-serif">-1.5</text><text x="333.125" y="302.5" style="font:10px Droid Sans,Trebuchet MS,Arial,Helvetica,sans-serif">-1</text><text x="333.125" y="252.5" style="font:10px Droid Sans,Trebuchet MS,Arial,Helvetica,sans-serif">-0.5</text><text x="333.125" y="202.5" style="font:10px Droid Sans,Trebuchet MS,Arial,Helvetica,sans-serif">0</text><text x="333.125" y="152.5" style="font:10px Droid Sans,Trebuchet MS,Arial,Helvetica,sans-serif">0.5</text><text x="333.125" y="102.5" style="font:10px Droid Sans,Trebuchet MS,Arial,Helvetica,sans-serif">1</text><text x="333.125" y="52.5" style="font:10px Droid Sans,Trebuchet MS,Arial,Helvetica,sans-serif">1.5</text><text x="25" y="216.125" text-anchor="middle" style="font:10px Droid Sans,Trebuchet MS,Arial,Helvetica,sans-serif">-3</text><text x="75" y="216.125" text-anchor="middle" style="font:10px Droid Sans,Trebuchet MS,Arial,Helvetica,sans-serif">-2.5</text><text x="125" y="216.125" text-anchor="middle" style="font:10px Droid Sans,Trebuchet MS,Arial,Helvetica,sans-serif">-2</text><text x="175" y="216.125" text-anchor="middle" style="font:10px Droid Sans,Trebuchet MS,Arial,Helvetica,sans-serif">-1.5</text><text x="225" y="216.125" text-anchor="middle" style="font:10px Droid Sans,Trebuchet MS,Arial,Helvetica,sans-serif">-1</text><text x="275" y="216.125" text-anchor="middle" style="font:10px Droid Sans,Trebuchet MS,Arial,Helvetica,sans-serif">-0.5</text><text x="325" y="216.125" text-anchor="middle" style="font:10px Droid Sans,Trebuchet MS,Arial,Helvetica,sans-serif">0</text><text x="375" y="216.125" text-anchor="middle" style="font:10px Droid Sans,Trebuchet MS,Arial,Helvetica,sans-serif">0.5</text><text x="425" y="216.125" text-anchor="middle" style="font:10px Droid Sans,Trebuchet MS,Arial,Helvetica,sans-serif">1</text><text x="475" y="216.125" text-anchor="middle" style="font:10px Droid Sans,Trebuchet MS,Arial,Helvetica,sans-serif">1.5</text><text x="525" y="216.125" text-anchor="middle" style="font:10px Droid Sans,Trebuchet MS,Arial,Helvetica,sans-serif">2</text><text x="575" y="216.125" text-anchor="middle" style="font:10px Droid Sans,Trebuchet MS,Arial,Helvetica,sans-serif">2.5</text><text x="625" y="216.125" text-anchor="middle" style="font:10px Droid Sans,Trebuchet MS,Arial,Helvetica,sans-serif">3</text><path d="M-10 200l9.75-71.26 1 2.24.45 1.02.43 1.01.44 1.01.42 1.01.42 1.02.42 1.01.41 1.01.41 1.01.4 1.01.4 1.01.4 1.01.39 1.01.39 1 .38 1.01.39 1.01.37 1.01.38 1.01.37 1 .38 1.01.36 1.01.37 1 .36 1.01.36 1 .36 1.01.36 1.01.36 1 .35 1.01.35 1 .35 1.01.35 1 .34 1.01.35 1 .34 1.01.34 1 .34 1 .34 1.01.34 1 .34 1 .33 1.01.33 1 .34 1 .33 1.01.33 1 .33 1 .33 1.01.33 1 .32 1 .33 1 .33 1 .32 1.01.33 1 .32 1 .32 1 .33 1 .32 1.01.32 1 .32 1 .32 1 .32 1 .32 1 .32 1 .32 1 .32 1 .32 1 .32 1 .32 1.01.31 1 .32 1 .32 1 .32 1 .32 1 .32 1 .31.99.32 1 .32 1 .32 1 .32 1 .32 1 .32 1 .32 1 .32 1 .32 1 .32 1 .32.99.32 1 .33 1 .32 1 .32 1 .33 1 .32.99.33 1 .32 1 .33 1 .33.99.33 1 .32 1 .33 1 .34.99.33 1 .33 1 .34.99.33 1 .34 1 .34.99.34 1 .34.99.34 1 .34.99.35 1 .35 1 .34.99.35 1 .36.99.35.99.36 1 .35.99.36 1 .37.99.36.99.37 1 .37.99.37.99.37 1 .38.99.38.99.38.99.39.99.39 1 .39.99.4.99.4.99.4.99.41.99.41.99.42.99.42.98.43.99.43.99.44.99.44.98.45.99.45.98.46.99.47.98.48.99.48.98.5.98.5.98.51.98.53.98.53.98.55.97.56.98.57.97.59.97.61.97.63.97.64.96.68.96.7.96.73.96.76.94.81.95.86.93.92.92 1 .91 1.09.9 1.22.86 1.42.82 1.73.73 2 .49 2 .08 2-.3 2-.7 2-1.09 1.84-1.34 1.37-1.21 1.13-1.13 1-1.1.91-1.08.84-1.07.79-1.06.74-1.05.71-1.04.68-1.04.65-1.04.63-1.04.61-1.03.59-1.03.57-1.02.56-1.03.55-1.02.53-1.02.52-1.03.51-1.02.5-1.01.49-1.02.48-1.02.47-1.02.46-1.01.46-1.02.45-1.01.45-1.01.44-1.02.43-1.01.43-1.01.42-1.01.42-1.02.41-1.01.41-1.01.41-1.01.4-1.01.4-1.01.39-1 .39-1.01.39-1.01.38-1.01.38-1.01.38-1 .37-1.01.37-1.01.37-1.01.37-1 .36-1.01.37-1 .36-1.01.35-1.01.36-1 .35-1.01.35-1 .35-1.01.35-1 .35-1.01.35-1 .34-1.01.34-1 .34-1 .34-1.01.34-1 .34-1 .33-1.01.34-1 .33-1 .33-1.01.33-1 .33-1 .33-1.01.33-1 .33-1 .32-1 .33-1.01.32-1 .33-1 .32-1 .33-1 .32-1.01.32-1 .32-1 .32-1 .33-1 .32-1 .32-1 .32-1 .32-1 .31-1.01.32-1 .32-1 .32-1 .32-1 .32-1 .32-1 .31-1 .32-1 .32-1 .32-1 .32-1 .32-1 .32-1 .31-.99.32-1 .32-1 .32-1 .32-1 .32-1 .32-1 .33-1 .32-1 .32-.99.32-1 .33-1 .32-1 .32-1 .33-.99.32-1 .33-1 .33-1 .33-.99.33-1 .33-1 .33-1 .33-.99.33-1 .34-1 .33-.99.34-1 .34-.99.34-1 .34-1 .34-.99.34-1 .35-.99.34-1 .35-.99.35-1 .35-.99.35-1 .36-.99.36-1 .35-.99.37-.99.36-1 .37-.99.36-1 .38-.99.37-.99.37-.99.38-1 .39-.99.38-.99.39-.99.39-.99.4-.99.39-.99.41-.99.4-.99.41-.99.42-.99.42-.99.42-.99.43-.99.44-.98.44-.99.45-.99.45-.98.46-.99.46-.98.48-.99.48-.98.49-.98.5-.98.51-.98.52-.98.53-.98.54-.97.55-.98.57-.97.59-.98.6-.97.62-.96.64-.97.66-.96.69-.96.72-.95.76-.95.79-.95.84-.94.89-.92.97-.92 1.05-.9 1.18-.87 1.34-.84 1.59-.77 2-.62 2-.22 2 .17 2 .57 2 .96 2 1.35 1.49 1.25 1.19 1.15 1.03 1.11.93 1.08.86 1.07.81 1.06.76 1.05.72 1.05.69 1.04.66 1.04.63 1.04.62 1.03.59 1.03.58 1.03.56 1.02.55 1.03.54 1.02.52 1.02.51 1.02.5 1.02.5 1.02.48 1.02.47 1.01.47 1.02.46 1.01.46 1.02.44 1.01.44 1.02.44 1.01.43 1.01.42 1.01.42 1.01.42 1.01.41 1.02.4 1.01.41 1 .39 1.01.4 1.01.39 1.01.39 1.01.38 1.01.38 1.01.38 1 .38 1.01.37 1.01.37 1.01.37 1 .36 1.01.36 1 .36 1.01.36 1.01.36 1 .35 1.01.36 1 .35 1.01.35 1 .34 1.01.35 1 .34 1.01.35 1 .34 1 .34 1.01.33 1 .34 1.01.34 1 .33 1 .34 1.01.33 1 .33 1 .33 1 .33 1.01.33 1 .33 1 .32 1 .33 1.01.32 1 .33 1 .32 1 .33 1.01.32 1 .32 1 .32 1 .33 1 .32 1 .32 1 .32 1 .32 1.01.32 1 .32 1 .32 1 .31 1 .32 1 .32 1 .32 1 .32 1 .32 1 .32 1 .31 1 .32 1 .32 1 .32 1 .32 1 .32 1 .32 1 .31 1 .32.99.32 1 .32 1 .33 1 .32 1 .32 1 .32 1 .32.99.33 1 .32 1 .32 1 .33 1 .32.99.33 1 .33 1 .33 1 .32.99.33 1 .34 1 .33 1 .33.99.33 1 .34 1 .33.99.34 1 .34.99.34 1 .34 1 .34.99.35 1 .34.99.35 1 .35.99.35 1 .35.99.36 1 .36.99.35.99.36 1 .37.99.36 1 .37.99.37.99.37 1 .38.99.38.99.38.99.38.99.39 1 .39.99.39.99.4.99.4.99.41.99.41.99.41.99.42.99.42.98.43.99.43.99.44.99.45.98.45.99.46.98.46.99.47.98.48.99.49.98.49.98.51.98.52.98.52.98.54.97.55.98.57.97.58.98.59.97.62.97.63.96.66.96.68.96.71.96.74.95.78.95.82.94.88.93.94.92 1.03.9 1.13.89 1.28.85 1.5.8 1.89.68 2 .35 2-.05 2-.44 2-.83 2-1.23 1.64-1.28 1.27-1.18 1.08-1.12.96-1.09.89-1.07.82-1.07.78-1.05.73-1.05.7-1.04.67-1.04.64-1.04.63-1.03.6-1.03.58-1.03.57-1.03.55-1.02.54-1.03.53-1.02.52-1.02.5-1.02.5-1.02.48-1.02.48-1.01.47-1.02.47-1.02.45-1.01.45-1.01.44-1.02.44-1.01.43-1.01.43-1.01.42-1.02.42-1.01.41-1.01.41-1.01.4-1.01.4-1.01.4-1.01.39-1.01.39-1 .38-1.01.38-1.01.38-1.01.38-1 .37-1.01.37-1.01.37-1.01.37-1 .36-1.01.36-1 .36-1.01.36-1.01.36-1 .35-1.01.35-1 .35-1.01.35-1 .34-1.01.35-1 .34-1 .34-1.01.34-1 .34-1.01.34-1 .34-1 .33-1.01.33-1 .34-1 .33-1.01.33-1 .33-1 .33-1.01.33-1 .32-1 .33-1 .33-1 .32-1.01.33-1 .32-1 .32-1 .33-1 .32-1.01.32-1 .32-1 .32-1 .32-1 .32-1 .32-1 .32-1 .32-1 .32-1 .32-1 .32-1.01.31-1 .32-1 .32-1 .32-1 .32-1 .32-1 .31-.99.32-1 .32-1 .32-1 .32-1 .32-1 .32-1 .32-1 .32-1 .32-1 .32-1 .32-.99.32-1 .33-1 .32-1 .32-1 .33-1 .32-.99.33-1 .32-1 .33-1 .33-.99.33-1 .32-1 .33-1 .34-.99.33-1 .33-1 .34-.99.33-1 .34-1 .34-.99.34-1 .34-.99.34-1 .34-.99.35-1 .35-1 .34-.99.35-1 .36-.99.35-.99.36-1 .35-.99.36-1 .37-.99.36-.99.37-1 .37-.99.37-.99.37-1 .38-.99.38-.99.38-.99.39-.99.39-1 .39-.99.4-.99.4-.99.4-.99.41-.99.41-.99.42-.99.42-.98.42-.99.44-.99.43-.99.45-.98.44-.99.46-.99.46-.98.47-.98.48-.99.48-.98.49-.98.5-.98.52-.98.52-.98.53-.98.55-.97.56-.98.57-.97.59-.97.61-.97.63-.97.64-.96.68-.97.7-.95.73-.96.76-.95.81-.94.86-.93.91-.93.99-.91 1.09-.89 1.22-.86 1.41-.83 1.72-.73 2-.5 2-.1 2 .3 2 .68 2 1.08 1.86 1.35 1.38 1.21 1.13 1.14 1 1.1.91 1.08.85 1.06.79 1.06.75 1.05.71 1.05.68 1.04.65 1.04.63 1.03.61 1.03.59 1.03.57 1.03.56 1.02.54 1.03.54 1.02.52 1.02.5 1.02.5 1.02.49 1.02.48 1.01.48 1.02.46 1.02.46 1.01.45 1.02.45 1.01.44 1.01.43 1.02.43 1.01.42 1.01.42 1.01.41 1.01.41 1.01.41 1.01.4 1.01.4 1.01.39 1.01.39 1.01.39 1.01.38 1 .38 1.01.38 1.01.37 1.01.37 1 .37 1.01.37 1.01.36 1 .37 1.01.36 1.01.35 1 .36 1.01.35 1 .36 1.01.35 1 .34 1.01.35 1 .35 1.01.34 1 .34 1 .34 1.01.34 1 .34 1.01.34 1 .33 1 .34 1.01.33 1 .33 1 .33 1.01.33 1 .33 1 .33 1 .33 1.01.33 1 .32 1 .33 1 .32 1.01.33 1 .32 1 .32 1 .32 1 .33 1 .32 1 .32 1.01.32 1 .32 1 .32 1 .32 1 .32 1 .32 1 .31 1 .32 1 .32 1 .32 1 .32 1 .32 1 .32 1 .31 1 .32 1 .32 1 .32 1 .32 1 .32 1 .32 1 .32 1 .32 1 .32 1 .32 1 .32.99.32 1 .32 1 .32 1 .32 1 .33 1 .32.99.33 1 .32 1 .33 1 .32.99.33 1 .33 1 .33 1 .33.99.33 1 .33 1 .33.99.34 1 .33 1 .34.99.34 1 .34 1 .34.99.34 1 .34.99.35 1 .34.99.35 1 .35.99.35 1 .35.99.36 1 .36.99.36 1 .36.99.36.99.37 1 .37.99.37.99.37 1 .38.99.37.99.39.99.38.99.39 1 .39.99.4.99.39.99.41.99.4.99.41.99.42.99.42.99.42.98.43.99.44.99.44.99.44.98.46.99.46.98.46.99.48.98.48.98.49.99.5.98.51.98.51.98.53.97.55.98.55.98.57.97.58.97.6.97.62.97.64.96.67.97.69.96.71.95.76.95.79.95.84.93.89.93.96.92 1.06.9 1.17.87 1.33.84 1.59.78 2 .62 2 .23 2-.17 2-.56 2-.95 2-1.34 1.49-1.25 1.2-1.15 1.03-1.11.94-1.08.86-1.07.81-1.06.76-1.06.72-1.04.69-1.05.66-1.03.64-1.04.61-1.03.6-1.03.57-1.03.57-1.03.55-1.02.53-1.02.53-1.02.51-1.02.5-1.02.49-1.02.49-1.02.47-1.02.47-1.01.46-1.02.45-1.01.45-1.02.44-1.01.44-1.01.43-1.01.42-1.02.42-1.01.42-1.01.41-1.01.4-1.01.4-1.01.4-1.01.4-1.01.39-1.01.39-1 .38-1.01.38-1.01.38-1.01.38-1 .37-1.01.37-1.01.37-1.01.36-1 .36-1.01.37-1 .35-1.01.36-1.01.35-1 .36-1.01.35-1 .35-1.01.34-1 .35-1.01.34-1 .35-1 .34-1.01.34-1 .34-1.01.33-1 .34-1 .33-1.01.34-1 .33-1 .33-1.01.33-1 .33-1 .33-1 .33-1.01.32-1 .33-1 .33-1 .32-1 .33-1.01.32-1 .32-1 .32-1 .33-1 .32-1 .32-1.01.32-1 .32-1 .32-1 .32-1 .32-1 .32-1 .32-1 .31-1 .32-1 .32-1 .32-1 .32-1 .32-1 .31-1 .32-1 .32-1 .32-1 .32-1 .32-1 .32-1 .32-1 .32-1 .32-1 .32-1 .32-.99.32-1 .32-1 .32-1 .32-1 .33-1 .32-.99.33-1 .32-1 .33-1 .32-1 .33-.99.33-1 .33-1 .33-.99.33-1 .33-1 .33-1 .33-.99.34-1 .34-1 .33-.99.34-1 .34-.99.34-1 .35-.99.34-1 .35-1 .34-.99.35-1 .35-.99.36-1 .35-.99.36-.99.35-1 .37-.99.36-1 .36-.99.37-.99.37-1 .37-.99.38-.99.38-.99.38-1 .38-.99.39-.99.39-.99.39-.99.4-.99.4-.99.41-.99.41-.99.41-.99.42-.99.42-.99.43-.99.43-.98.44-.99.45-.99.45-.98.45-.99.47-.98.47-.99.48-.98.49-.98.49-.98.51-.98.51-.98.53-.98.54-.98.55-.97.56-.98.58-.97.6-.97.61-.97.63-.97.66-.96.68-.96.71-.96.74-.95.78-.94.82-.94.88-.93.94-.93 1.02-.9 1.13-.89 1.27-.85 1.5-.8 1.87-.69 2-.36 2 .04 2 .43 2 .82 2 1.22 1.65 1.29 1.28 1.17 1.09 1.12.97 1.1.88 1.07.83 1.07.77 1.05.74 1.05.7 1.04.67 1.04.64 1.04.63 1.03.6 1.03.58 1.03.57 1.03.56 1.02.54 1.03.52 1.02.52 1.02.51 1.02.49 1.02.49 1.02.48 1.01.47 1.02.46 1.01.46 1.02.45 1.01.44 1.02.44 1.01.43 1.01.43 1.01.42 1.02.41 1.01.42 1.01.4 1.01.41 1.01.4 1.01.39 1.01.4 1 .38 1.01.39 1.01.38 1.01.38 1.01.38 1 .37 1.01.37 1.01.37 1.01.37 1 .36 1.01.36 1 .36 1.01.36 1.01.35 1 .36 1.01.35 1 .35 1.01.35 1 .34 1.01.35 1 .34 1 .34 1.01.34 1 .34 1.01.34 1 .34 1 .33 1.01.33 1 .34 1 .33 1.01.33 1 .33 1 .33 1.01.33 1 .32 1 .33 1 .33 1 .32 1.01.33 1 .32 1 .32 1 .33 1 .32 1.01.32 1 .32 1 .32 1 .32 1 .32 1 .32 1 .32 1 .32 1 .32 1 .32 1 .32 1.01.31 1 .32 1 .32 1 .32 1 .32 1 .32 1 .31 1 .32.99.32 1 .32 1 .32 1 .32 1 .32 1 .32 1 .32 1 .32 1 .32 1 .32.99.32 1 .33 1 .32 1 .32 1 .33 1 .32.99.33 1 .32 1 .33 1 .33.99.33 1 .32 1 .34 1 .33.99.33 1 .33 1 .34.99.33 1 .34 1 .34.99.34 1 .34.99.34 1 .34.99.35 1 .34 1 .35.99.35 1 .36.99.35.99.35 1 .36.99.36 1 .36.99.37.99.37 1 .36.99.38.99.37 1 .38.99.38.99.38.99.39 1 .39.99.39.99.39.99.4.99.41.99.41.99.41.99.41.99.43.99.42.98.43.99.44.99" fill="none" stroke="#000"/></g></svg>